<mxfile host="app.diagrams.net" modified="2023-12-08T19:47:25.292Z" agent="Mozilla/5.0 (X11; Linux x86_64; rv:120.0) Gecko/20100101 Firefox/120.0" etag="OSZXvqEczNiZXNqwfc7z" version="22.1.7" type="device">
  <diagram name="Pagina-1" id="ed2_-DnoGlUrIFm0Tw4G">
    <mxGraphModel dx="989" dy="500" grid="1" gridSize="10" guides="1" tooltips="1" connect="1" arrows="1" fold="1" page="1" pageScale="1" pageWidth="827" pageHeight="1169" math="0" shadow="0">
      <root>
        <mxCell id="0" />
        <mxCell id="1" parent="0" />
        <mxCell id="ZAoLLnpvm8W4UGgeYZgy-1" value="&lt;div style=&quot;font-size: 16px;&quot;&gt;&lt;font style=&quot;font-size: 16px;&quot;&gt;sneezing(bob) :- flu(bob).&lt;/font&gt;&lt;/div&gt;&lt;div style=&quot;font-size: 16px;&quot;&gt;&lt;font style=&quot;font-size: 16px;&quot;&gt;sneezing(bob) :- hay_fever(bob).&lt;/font&gt;&lt;/div&gt;&lt;div style=&quot;font-size: 16px;&quot;&gt;&lt;font style=&quot;font-size: 16px;&quot;&gt;flu(bob).&lt;/font&gt;&lt;/div&gt;&lt;div style=&quot;font-size: 16px;&quot;&gt;&lt;font style=&quot;font-size: 16px;&quot;&gt;hay_fever(bob).&lt;br style=&quot;font-size: 16px;&quot;&gt;&lt;/font&gt;&lt;/div&gt;&lt;div style=&quot;font-size: 16px;&quot;&gt;&lt;font style=&quot;font-size: 16px;&quot;&gt;&lt;br style=&quot;font-size: 16px;&quot;&gt;&lt;/font&gt;&lt;/div&gt;" style="rounded=0;whiteSpace=wrap;html=1;align=left;verticalAlign=top;fontFamily=Courier New;fontSize=16;fontStyle=1" parent="1" vertex="1">
          <mxGeometry x="80" y="250" width="320" height="90" as="geometry" />
        </mxCell>
        <mxCell id="ZAoLLnpvm8W4UGgeYZgy-2" value="&lt;div style=&quot;font-size: 16px;&quot;&gt;&lt;font style=&quot;font-size: 16px;&quot;&gt;null :- flu(bob).&lt;/font&gt;&lt;/div&gt;&lt;div style=&quot;font-size: 16px;&quot;&gt;&lt;font style=&quot;font-size: 16px;&quot;&gt;sneezing(bob) :- hay_fever(bob).&lt;/font&gt;&lt;/div&gt;&lt;div style=&quot;font-size: 16px;&quot;&gt;&lt;font style=&quot;font-size: 16px;&quot;&gt;flu(bob).&lt;/font&gt;&lt;/div&gt;&lt;div style=&quot;font-size: 16px;&quot;&gt;&lt;font style=&quot;font-size: 16px;&quot;&gt;hay_fever(bob).&lt;br style=&quot;font-size: 16px;&quot;&gt;&lt;/font&gt;&lt;/div&gt;&lt;div style=&quot;font-size: 16px;&quot;&gt;&lt;font style=&quot;font-size: 16px;&quot;&gt;&lt;br style=&quot;font-size: 16px;&quot;&gt;&lt;/font&gt;&lt;/div&gt;" style="rounded=0;whiteSpace=wrap;html=1;align=left;verticalAlign=top;fontFamily=Courier New;fontSize=16;fontStyle=1" parent="1" vertex="1">
          <mxGeometry x="420" y="250" width="320" height="90" as="geometry" />
        </mxCell>
        <mxCell id="ZAoLLnpvm8W4UGgeYZgy-3" value="&lt;font style=&quot;font-size: 20px;&quot;&gt;P&lt;/font&gt;&lt;font style=&quot;font-size: 20px;&quot;&gt;(w&lt;sub style=&quot;font-size: 20px;&quot;&gt;1&lt;/sub&gt;) = 0.7 路 0.8&lt;br style=&quot;font-size: 20px;&quot;&gt;&lt;/font&gt;" style="text;html=1;strokeColor=none;fillColor=none;align=center;verticalAlign=middle;whiteSpace=wrap;rounded=0;fontFamily=Times New Roman;fontSize=20;" parent="1" vertex="1">
          <mxGeometry x="80" y="220" width="320" height="30" as="geometry" />
        </mxCell>
        <mxCell id="ZAoLLnpvm8W4UGgeYZgy-4" value="&lt;font style=&quot;font-size: 20px;&quot;&gt;P&lt;/font&gt;&lt;font style=&quot;font-size: 20px;&quot;&gt;(w&lt;sub style=&quot;font-size: 20px;&quot;&gt;2&lt;/sub&gt;) = 0.3 路 0.8&lt;br style=&quot;font-size: 20px;&quot;&gt;&lt;/font&gt;" style="text;html=1;strokeColor=none;fillColor=none;align=center;verticalAlign=middle;whiteSpace=wrap;rounded=0;fontFamily=Times New Roman;fontSize=20;" parent="1" vertex="1">
          <mxGeometry x="420" y="220" width="320" height="30" as="geometry" />
        </mxCell>
        <mxCell id="ZAoLLnpvm8W4UGgeYZgy-5" value="&lt;div style=&quot;font-size: 16px;&quot;&gt;&lt;font style=&quot;font-size: 16px;&quot;&gt;sneezing(bob) :- flu(bob).&lt;/font&gt;&lt;/div&gt;&lt;div style=&quot;font-size: 16px;&quot;&gt;&lt;font style=&quot;font-size: 16px;&quot;&gt;null :- hay_fever(bob).&lt;/font&gt;&lt;/div&gt;&lt;div style=&quot;font-size: 16px;&quot;&gt;&lt;font style=&quot;font-size: 16px;&quot;&gt;flu(bob).&lt;/font&gt;&lt;/div&gt;&lt;div style=&quot;font-size: 16px;&quot;&gt;&lt;font style=&quot;font-size: 16px;&quot;&gt;hay_fever(bob).&lt;br style=&quot;font-size: 16px;&quot;&gt;&lt;/font&gt;&lt;/div&gt;&lt;div style=&quot;font-size: 16px;&quot;&gt;&lt;font style=&quot;font-size: 16px;&quot;&gt;&lt;br style=&quot;font-size: 16px;&quot;&gt;&lt;/font&gt;&lt;/div&gt;" style="rounded=0;whiteSpace=wrap;html=1;align=left;verticalAlign=top;fontFamily=Courier New;fontSize=16;fontStyle=1" parent="1" vertex="1">
          <mxGeometry x="80" y="390" width="320" height="90" as="geometry" />
        </mxCell>
        <mxCell id="ZAoLLnpvm8W4UGgeYZgy-6" value="&lt;div style=&quot;font-size: 16px;&quot;&gt;&lt;font style=&quot;font-size: 16px;&quot;&gt;null :- flu(bob).&lt;/font&gt;&lt;/div&gt;&lt;div style=&quot;font-size: 16px;&quot;&gt;&lt;font style=&quot;font-size: 16px;&quot;&gt;null :- hay_fever(bob).&lt;/font&gt;&lt;/div&gt;&lt;div style=&quot;font-size: 16px;&quot;&gt;&lt;font style=&quot;font-size: 16px;&quot;&gt;flu(bob).&lt;/font&gt;&lt;/div&gt;&lt;div style=&quot;font-size: 16px;&quot;&gt;&lt;font style=&quot;font-size: 16px;&quot;&gt;hay_fever(bob).&lt;br style=&quot;font-size: 16px;&quot;&gt;&lt;/font&gt;&lt;/div&gt;&lt;div style=&quot;font-size: 16px;&quot;&gt;&lt;font style=&quot;font-size: 16px;&quot;&gt;&lt;br style=&quot;font-size: 16px;&quot;&gt;&lt;/font&gt;&lt;/div&gt;" style="rounded=0;whiteSpace=wrap;html=1;align=left;verticalAlign=top;fontFamily=Courier New;fontSize=16;fontStyle=1" parent="1" vertex="1">
          <mxGeometry x="420" y="390" width="320" height="90" as="geometry" />
        </mxCell>
        <mxCell id="ZAoLLnpvm8W4UGgeYZgy-7" value="&lt;font style=&quot;font-size: 20px;&quot;&gt;P&lt;/font&gt;&lt;font style=&quot;font-size: 20px;&quot;&gt;(w&lt;sub style=&quot;font-size: 20px;&quot;&gt;3&lt;/sub&gt;) = 0.7 路 0.2&lt;br style=&quot;font-size: 20px;&quot;&gt;&lt;/font&gt;" style="text;html=1;strokeColor=none;fillColor=none;align=center;verticalAlign=middle;whiteSpace=wrap;rounded=0;fontFamily=Times New Roman;fontSize=20;" parent="1" vertex="1">
          <mxGeometry x="80" y="360" width="320" height="30" as="geometry" />
        </mxCell>
        <mxCell id="ZAoLLnpvm8W4UGgeYZgy-8" value="&lt;font style=&quot;font-size: 20px;&quot;&gt;P&lt;/font&gt;&lt;font style=&quot;font-size: 20px;&quot;&gt;(w&lt;sub style=&quot;font-size: 20px;&quot;&gt;4&lt;/sub&gt;) = 0.3 路 0.2&lt;br style=&quot;font-size: 20px;&quot;&gt;&lt;/font&gt;" style="text;html=1;strokeColor=none;fillColor=none;align=center;verticalAlign=middle;whiteSpace=wrap;rounded=0;fontFamily=Times New Roman;fontSize=20;" parent="1" vertex="1">
          <mxGeometry x="420" y="360" width="320" height="30" as="geometry" />
        </mxCell>
      </root>
    </mxGraphModel>
  </diagram>
</mxfile>
